<?xml version="1.0" encoding="UTF-8" standalone="no"?>
<!-- Created with Inkscape (http://www.inkscape.org/) -->

<svg
   width="210mm"
   height="297mm"
   viewBox="0 0 210 297"
   version="1.1"
   id="svg5"
   inkscape:version="1.1.1 (3bf5ae0d25, 2021-09-20)"
   sodipodi:docname="icon.svg"
   xmlns:inkscape="http://www.inkscape.org/namespaces/inkscape"
   xmlns:sodipodi="http://sodipodi.sourceforge.net/DTD/sodipodi-0.dtd"
   xmlns="http://www.w3.org/2000/svg"
   xmlns:svg="http://www.w3.org/2000/svg">
  <sodipodi:namedview
     id="namedview7"
     pagecolor="#ffffff"
     bordercolor="#666666"
     borderopacity="1.0"
     inkscape:pageshadow="2"
     inkscape:pageopacity="0.0"
     inkscape:pagecheckerboard="0"
     inkscape:document-units="mm"
     showgrid="false"
     inkscape:zoom="2.5816919"
     inkscape:cx="129.17885"
     inkscape:cy="114.07248"
     inkscape:window-width="1532"
     inkscape:window-height="836"
     inkscape:window-x="0"
     inkscape:window-y="0"
     inkscape:window-maximized="1"
     inkscape:current-layer="layer1" />
  <defs
     id="defs2" />
  <g
     inkscape:label="Layer 1"
     inkscape:groupmode="layer"
     id="layer1">
    <path
       style="fill:none;fill-rule:evenodd;stroke:#000000;stroke-width:0.264583px;stroke-linecap:butt;stroke-linejoin:miter;stroke-opacity:1"
       d="M 8.2760213,9.1719597 C 8.844254,8.8968748 6.9392344,9.7118923 7.4977799,9.5202469 7.5912228,9.4881852 7.7571938,9.2781386 7.7571938,9.3769287 c 0,1.3544953 -0.4683559,-0.4398478 -0.2594139,0.4383614 0.012179,0.051185 0.1934845,0.1922469 0.2438011,0.2822329 0.060778,0.108695 -0.1141164,0.06979 0.076463,0.172542 0.2521508,0.135947 1.375465,0.14553 1.5632885,-0.211775 C 9.5085192,9.8163373 8.7351636,9.4036241 8.2760213,9.1719597 Z"
       id="path361" />
    <path
       style="fill:none;fill-rule:evenodd;stroke:#000000;stroke-width:0.264583px;stroke-linecap:butt;stroke-linejoin:miter;stroke-opacity:1"
       d="m 11.675623,9.6059174 c -0.142517,0 -0.285034,0 -0.427552,0 -0.216579,0 -0.433157,0 -0.649736,0 -0.12544,0 -0.483909,0.1844852 -0.265018,0.3707056 0.213306,0.18147 0.291584,0.079454 0.482798,0.178947 0.309386,0.160982 -0.461694,0.06392 0.102484,0.204969 0.08381,0.02095 0.563932,0.01245 0.571672,0 0.287765,-0.4630198 1.443431,-1.130817 0.185352,-0.7546216 z"
       id="path363" />
    <path
       style="fill:none;fill-rule:evenodd;stroke:#000000;stroke-width:0.264583px;stroke-linecap:butt;stroke-linejoin:miter;stroke-opacity:1"
       d="m 7.1526955,5.735127 c -0.043791,0.7874381 0.1228092,1.5508481 0.409938,2.2686701 0.050749,0.1268724 -0.033142,0.2773717 0,0.4099377 0.023434,0.093738 0.1617575,0.1185466 0.2049687,0.204969 0.00529,0.01057 -0.00288,0.52163 0,0.52163 0.5605894,0 1.7426773,-0.204969 2.4808448,-0.204969 0.269625,0 1.508801,0.1263616 1.714213,-0.1785472 C 12.02744,8.6606576 11.804723,8.5817645 11.757691,8.475786 11.524311,7.9498993 11.57394,7.772347 11.57394,7.2411684 c 0,-0.061087 -0.161999,-2.0545292 -0.196562,-2.0925247 -0.02945,-0.032377 -0.08754,0 -0.131309,0 -0.204969,0 -0.409938,0 -0.614907,0 -0.6129,0 -1.2458208,-0.017296 -1.84472,0.1024845 -0.074904,0.014981 -0.1290487,0.094049 -0.2049688,0.1024845 -0.237668,0.026408 -0.4863557,-0.061692 -0.7173915,0 -0.259969,0.069417 -0.4423089,0.3815143 -0.7113862,0.3815143 -0.2656681,0 -0.656939,-0.3815143 -1.0308498,-0.3815143 -0.1233016,0 0.2466034,0 0.369905,0 0.3995727,0 0.1487728,-0.042552 0.6609448,0.3815143 z"
       id="path365" />
    <path
       style="fill:none;fill-rule:evenodd;stroke:#000000;stroke-width:0.264583px;stroke-linecap:butt;stroke-linejoin:miter;stroke-opacity:1"
       d="m 12.685656,2.0961277 c -0.01973,1.1165751 -0.204969,2.1822477 -0.204969,3.2959165 0,0.4782609 0,0.9565219 0,1.4347828 0,0.6149067 0,1.2298135 0,1.8447205 0,0.238244 0.09558,0.5559282 0,0.7598261 -0.02194,0.046799 -0.08166,0.1713326 -0.09608,0.1217004 -0.04514,-0.1553525 -0.03013,-0.3296922 -0.102485,-0.474391 -0.03988,-0.079769 -0.704121,-0.5124225 -0.815472,-0.5124225 -0.0552,0 0.118272,-0.035697 0.141717,-0.085671 0.0451,-0.096127 0.07223,-0.2001708 0.09688,-0.3034501 0.09151,-0.3834532 0,-0.9294045 0,-1.3322982 0,-0.2801562 -0.212527,-0.7079893 -0.286236,-1.0028264 -0.215784,-0.8631341 0.129896,-2.3955809 0.386318,-3.1990369 0.114098,-0.3575067 -0.0177,-1.1456063 0,-1.2138004 0.03144,-0.1211271 0.08637,0.2649221 0.199765,0.317862 0.125019,0.058369 0.173524,0.011579 0.680561,0.3490877 z"
       id="path367" />
    <path
       style="fill:none;fill-rule:evenodd;stroke:#000000;stroke-width:0.264583px;stroke-linecap:butt;stroke-linejoin:miter;stroke-opacity:1"
       d="m 12.996312,5.2675416 c 0.52062,-0.1175297 0.298841,-0.1024845 0.658943,-0.1024845 0.535667,0 1.185935,0.070373 1.656565,-0.1024845 0.2109,-0.077461 0.479996,0.082501 0.479996,0 0,-0.02562 -0.102484,0 -0.07686,0 0.09474,0 0.378979,0 0.284234,0 -0.05471,0 -0.164135,-0.054712 -0.164135,0 0,0.073462 0.451714,-0.00567 -0.118098,0.5616631 -0.167602,0.1668735 0.111811,0.4318963 0.04764,0.4663845 -0.165009,0.088681 -2.547346,-0.1510147 -2.703429,-0.2049691 -0.223233,-0.077167 -1.040094,-0.198964 -0.847498,-0.198964"
       id="path369" />
    <rect
       style="fill:#ffb380;fill-opacity:0.626803;stroke:#f2ffff;stroke-width:0.35269"
       id="rect393"
       width="3.1722145"
       height="3.1722145"
       x="13.174859"
       y="1.5476741" />
    <text
       xml:space="preserve"
       style="font-style:normal;font-weight:normal;font-size:2.58929px;line-height:125%;font-family:sans-serif;letter-spacing:0px;word-spacing:0px;fill:#000000;fill-opacity:1;stroke:none;stroke-width:0.0647324px;stroke-linecap:butt;stroke-linejoin:miter;stroke-opacity:1"
       x="13.969434"
       y="4.1021185"
       id="text2631"><tspan
         sodipodi:role="line"
         id="tspan2629"
         style="stroke-width:0.0647324px"
         x="13.969434"
         y="4.1021185">L</tspan></text>
  </g>
</svg>
